<svg  xmlns="http://www.w3.org/2000/svg" viewBox="0 0 64 64">
  <path d="M0 0L64 0L64 64L0 64L0 0Z" fill="#d30000" fill-rule="evenodd" opacity="1" stroke="none"/>
  <path d="M4.5 32C4.5 16.8122 16.8122 4.5 32 4.5C47.1878 4.5 59.5 16.8122 59.5 32C59.5 47.1878 47.1878 59.5 32 59.5C16.8122 59.5 4.5 47.1878 4.5 32ZM41.7821 47.8396L43.3936 39.5336L38.4956 35.3889C38.6351 33.9488 38.3905 32.4974 37.7868 31.1825L46.3511 35.1045L52.5968 29.3557C52.8949 29.0718 52.9104 28.6013 52.6316 28.2983C52.3527 27.9954 51.8825 27.9719 51.5749 28.2456L46.0672 33.3144L39.2452 30.1903C39.8927 29.6921 40.4063 29.0408 40.7398 28.295L46.9915 28.1264L50.19 23.5585C50.4288 23.2172 50.3458 22.7468 50.0046 22.5079C49.6633 22.2689 49.1929 22.3518 48.9539 22.693L46.1911 26.6385L41.1491 26.7742C41.3353 24.9854 40.538 23.2361 39.0658 22.2032C37.5494 21.1441 35.5696 21.0174 33.9305 21.8744L32.2655 16.8877L35.0283 12.9421C35.2671 12.6008 35.1841 12.1305 34.8428 11.8915C34.5015 11.6526 34.0312 11.7354 33.7921 12.0766L30.5936 16.6445L32.658 22.8301C32.4786 23.0139 32.3137 23.2113 32.1648 23.4206C31.8581 23.8586 31.6353 24.3298 31.4871 24.8148L26.0352 19.2879L28.9146 12.3787C29.0751 11.9941 28.8933 11.5522 28.5087 11.3919C28.124 11.2315 27.6822 11.4134 27.522 11.7982L24.256 19.6334L31.0016 26.4718C29.5899 26.3681 28.1753 26.6318 26.8957 27.2373L21.1054 23.9263L13.8514 28.2815C13.6163 28.4184 13.4732 28.6712 13.4767 28.9433C13.4802 29.2153 13.6299 29.4644 13.8685 29.5951C14.1071 29.7259 14.3976 29.7181 14.6288 29.5747L21.1241 25.6754L25.4231 28.1335C24.7702 28.6365 24.1979 29.236 23.7257 29.9115C23.0753 30.8405 22.6475 31.8594 22.429 32.905L15.3106 33.1057L12.9535 39.8404C12.8361 40.2277 13.0448 40.6388 13.4269 40.7725C13.8089 40.9062 14.2284 40.7149 14.3781 40.3389L16.3921 34.5845L22.2581 34.4188C22.2094 37.0408 23.4213 39.641 25.7264 41.255C27.9898 42.8399 30.7842 43.1054 33.2016 42.2225L34.9919 47.6082L30.2734 51.4689C29.9732 51.7383 29.9376 52.1961 30.1927 52.5086C30.4478 52.8211 30.9034 52.878 31.2275 52.6378L36.7499 48.1195L34.5728 41.5693C36.2758 40.5597 37.5493 38.9606 38.152 37.0748L41.7436 40.1142L40.3009 47.5515C40.2425 47.9507 40.508 48.3253 40.904 48.4023C41.3 48.4794 41.6866 48.2316 41.7821 47.8396Z" fill="#ffffff" fill-rule="evenodd" opacity="1" stroke="none"/>
</svg>
